<?xml version="1.0" encoding="UTF-8"?>
<svg width="159px" height="24px" viewBox="0 0 159 24" version="1.1" xmlns="http://www.w3.org/2000/svg" xmlns:xlink="http://www.w3.org/1999/xlink">
    <!-- Generator: Sketch 55.1 (78136) - https://sketchapp.com -->
    <title>Group 15</title>
    <desc>Created with Sketch.</desc>
    <defs>
        <polygon id="path-1" points="0.1313 0.4212 15.6123 0.4212 15.6123 17 0.1313 17"></polygon>
        <polygon id="path-3" points="0 24 158.624 24 158.624 0.003 0 0.003"></polygon>
    </defs>
    <g id="Page-1" stroke="none" stroke-width="1" fill="none" fill-rule="evenodd">
        <g id="home-desktop" transform="translate(-108.000000, -44.000000)">
            <g id="Group-15" transform="translate(108.000000, 43.000000)">
                <polygon id="Fill-1" fill="#FEFEFE" points="0 1.9682 0 24.5452 5.161 24.5452 5.161 16.2562 13.547 16.2562 13.547 11.2892 5.161 11.2892 5.161 6.9342 13.708 6.9342 13.708 1.9682"></polygon>
                <g id="Group-14" transform="translate(0.000000, 0.997400)">
                    <g id="Group-4" transform="translate(15.000000, 7.000000)">
                        <mask id="mask-2" fill="white">
                            <use xlink:href="#path-1"></use>
                        </mask>
                        <g id="Clip-3"></g>
                        <path d="M15.6123,0.4212 L15.6123,16.5482 L10.7743,16.5482 L10.7743,15.0322 C9.9033,16.2262 8.2913,17.0002 6.1623,17.0002 C2.9043,17.0002 0.1313,14.6782 0.1313,10.3232 L0.1313,0.4212 L4.9683,0.4212 L4.9683,9.6132 C4.9683,11.6132 6.2263,12.5492 7.7753,12.5492 C9.5493,12.5492 10.7743,11.5172 10.7743,9.2272 L10.7743,0.4212 L15.6123,0.4212 Z" id="Fill-2" fill="#FEFEFE" mask="url(#mask-2)"></path>
                    </g>
                    <mask id="mask-4" fill="white">
                        <use xlink:href="#path-3"></use>
                    </mask>
                    <g id="Clip-6"></g>
                    <polygon id="Fill-5" fill="#FEFEFE" mask="url(#mask-4)" points="33.148 23.548 37.986 23.548 37.986 0.003 33.148 0.003"></polygon>
                    <polygon id="Fill-7" fill="#FEFEFE" mask="url(#mask-4)" points="39.835 23.548 44.673 23.548 44.673 0.003 39.835 0.003"></polygon>
                    <path d="M49.2534,12.2596 C49.2534,5.8086 54.1244,0.6156 60.9934,0.6156 C65.1544,0.6156 68.7994,2.7446 70.6704,6.0346 L69.1544,6.9056 C67.6704,4.1316 64.5424,2.2606 60.9934,2.2606 C55.0594,2.2606 50.9624,6.7116 50.9624,12.2596 C50.9624,17.8066 55.0594,22.2586 60.9934,22.2586 C64.5744,22.2586 67.7344,20.3556 69.2184,17.5166 L70.7344,18.3876 C68.8964,21.7096 65.2194,23.9036 60.9934,23.9036 C54.1244,23.9036 49.2534,18.7106 49.2534,12.2596" id="Fill-8" fill="#FEFEFE" mask="url(#mask-4)"></path>
                    <path d="M86.7622,15.4847 C86.7622,11.6467 83.7942,8.6147 79.9562,8.6147 C76.1182,8.6147 73.1182,11.6467 73.1182,15.4847 C73.1182,19.3237 76.1182,22.3547 79.9562,22.3547 C83.7942,22.3547 86.7622,19.3237 86.7622,15.4847 M71.4732,15.4847 C71.4732,10.7117 75.2472,7.0667 79.9562,7.0667 C84.6332,7.0667 88.4082,10.7117 88.4082,15.4847 C88.4082,20.2577 84.6332,23.9037 79.9562,23.9037 C75.2472,23.9037 71.4732,20.2577 71.4732,15.4847" id="Fill-9" fill="#FEFEFE" mask="url(#mask-4)"></path>
                    <path d="M113.4917,13.3236 L113.4917,23.5486 L111.8797,23.5486 L111.8797,13.3236 C111.8797,10.2596 110.1047,8.6146 107.5897,8.6146 C104.8807,8.6146 102.7517,10.4206 102.7517,14.5496 L102.7517,23.5486 L101.1377,23.5486 L101.1377,13.3236 C101.1377,10.2596 99.4937,8.6146 97.0107,8.6146 C94.3647,8.6146 92.0107,10.4206 92.0107,14.5496 L92.0107,23.5486 L90.3977,23.5486 L90.3977,7.4216 L92.0107,7.4216 L92.0107,10.1956 C93.2037,7.9696 95.1387,7.0666 97.2037,7.0666 C99.5577,7.0666 101.3967,8.2276 102.2347,10.3566 C103.3957,8.0986 105.4607,7.0666 107.6217,7.0666 C111.0407,7.0666 113.4917,9.2926 113.4917,13.3236" id="Fill-10" fill="#FEFEFE" mask="url(#mask-4)"></path>
                    <path d="M138.7387,13.3236 L138.7387,23.5486 L137.1257,23.5486 L137.1257,13.3236 C137.1257,10.2596 135.3517,8.6146 132.8357,8.6146 C130.1267,8.6146 127.9977,10.4206 127.9977,14.5496 L127.9977,23.5486 L126.3847,23.5486 L126.3847,13.3236 C126.3847,10.2596 124.7397,8.6146 122.2567,8.6146 C119.6107,8.6146 117.2567,10.4206 117.2567,14.5496 L117.2567,23.5486 L115.6437,23.5486 L115.6437,7.4216 L117.2567,7.4216 L117.2567,10.1956 C118.4507,7.9696 120.3847,7.0666 122.4497,7.0666 C124.8037,7.0666 126.6427,8.2276 127.4817,10.3566 C128.6427,8.0986 130.7067,7.0666 132.8677,7.0666 C136.2867,7.0666 138.7387,9.2926 138.7387,13.3236" id="Fill-11" fill="#FEFEFE" mask="url(#mask-4)"></path>
                    <path d="M151.5727,19.3236 C151.5727,21.9686 149.2507,23.9036 145.7997,23.9036 C142.5737,23.9036 140.4447,22.3866 139.6717,20.3226 L141.0577,19.5166 C141.6387,21.2586 143.3807,22.3546 145.7997,22.3546 C148.0567,22.3546 149.9607,21.3546 149.9607,19.3236 C149.9607,14.9366 140.1867,17.4526 140.1867,11.6466 C140.1867,9.0986 142.3807,7.0666 145.6707,7.0666 C148.2827,7.0666 150.2827,8.3246 151.1537,10.2916 L149.7987,11.0666 C149.1217,9.3886 147.4437,8.6146 145.6707,8.6146 C143.5737,8.6146 141.8007,9.7116 141.8007,11.6466 C141.8007,15.9686 151.5727,13.4206 151.5727,19.3236" id="Fill-12" fill="#FEFEFE" mask="url(#mask-4)"></path>
                    <path d="M152.4956,20.9359 C152.4956,19.2579 153.8826,17.8719 155.5596,17.8719 C157.2366,17.8719 158.6246,19.2579 158.6246,20.9359 C158.6246,22.6129 157.2366,23.9999 155.5596,23.9999 C153.8826,23.9999 152.4956,22.6129 152.4956,20.9359" id="Fill-13" fill="#007EC7" mask="url(#mask-4)"></path>
                </g>
            </g>
        </g>
    </g>
</svg>